# xmcd CD database file
#
# Track frame offsets:
#	150
#	17582
#	28740
#	44345
#	66257
#	85945
#	102587
#	123392
#	138480
#	159375
#	174940
#
# Disc length: 2517 seconds
#
# Revision: 2
# Processed by: cddbd v1.5.1PL0 Copyright (c) Steve Scherf et al.
# Submitted via: CDex 1.51
#
DISCID=8e09d30b
DTITLE=Revelators (Featuring Joe Camilleri) - Amazing Stories
DYEAR=1991
DGENRE=Rock
TTITLE0=What Does It Take To Win Your Love
TTITLE1=Oh Darlin
TTITLE2=Do Right Woman
TTITLE3=Caribbean Wind
TTITLE4=El Salvador
TTITLE5=Hot Burrito
TTITLE6=Louisiana Blues
TTITLE7=I've Got To Find A Way To Win Maria Back
TTITLE8=If I Could Be There
TTITLE9=Tupelo Honey
TTITLE10=Walk That Line
EXTD=YEAR: 1991
EXTT0=
EXTT1=
EXTT2=
EXTT3=
EXTT4=
EXTT5=
EXTT6=
EXTT7=
EXTT8=
EXTT9=
EXTT10=
PLAYORDER=
